<svg id="icons" enable-background="new 0 0 64 64" height="512" viewBox="0 0 64 64" width="512" xmlns="http://www.w3.org/2000/svg"><g><g><path d="m41 59h5c2.2 0 4-1.8 4-4v4c0 2.2-1.8 4-4 4h-28c-2.2 0-4-1.8-4-4v-4c0 2.2 1.8 4 4 4h5 9z" fill="#4a89dc"/></g><g><path d="m50 5v3c0 2.21-1.79 4-4 4h-28c-2.21 0-4-1.79-4-4v-3c0-2.2 1.8-4 4-4h28c2.2 0 4 1.8 4 4z" fill="#e6e9ed"/></g><g><path d="m50 11.01c0 2.21-1.79 4-4 4h-5-9-9-5c-2.21 0-4-1.79-4-4v-2-1.01c0 2.21 1.79 4 4 4h28c2.21 0 4-1.79 4-4v1.01z" fill="#ccd1d9"/></g><g><path d="m32 15.01h9v43.99h-9z" fill="#5d9cec"/></g><g><path d="m50 11.01v43.99c0 2.2-1.8 4-4 4h-5v-43.99h5c2.21 0 4-1.79 4-4z" fill="#5d9cec"/></g><g><path d="m23 15.01v43.99h-5c-2.2 0-4-1.8-4-4v-43.99c0 2.21 1.79 4 4 4z" fill="#5d9cec"/></g><g><path d="m23 15.01h9v43.99h-9z" fill="#5d9cec"/></g></g><g><g><path d="m46 59.994h-28c-2.757 0-5-2.243-5-5v-49.994c0-2.757 2.243-5 5-5h28c2.757 0 5 2.243 5 5v49.994c0 2.757-2.243 5-5 5zm-28-57.994c-1.654 0-3 1.346-3 3v49.994c0 1.654 1.346 3 3 3h28c1.654 0 3-1.346 3-3v-49.994c0-1.654-1.346-3-3-3z"/></g><g><path d="m46 64h-28c-2.757 0-5-2.243-5-5v-49.994c0-.553.447-1 1-1s1 .447 1 1v49.994c0 1.654 1.346 3 3 3h28c1.654 0 3-1.346 3-3v-49.994c0-.553.447-1 1-1s1 .447 1 1v49.994c0 2.757-2.243 5-5 5z"/></g><g><path d="m18 16.006c-2.757 0-5-2.243-5-5 0-.553.447-1 1-1s1 .447 1 1c0 1.654 1.346 3 3 3 .553 0 1 .447 1 1s-.447 1-1 1z"/></g><g><path d="m46 16.006c-.553 0-1-.447-1-1s.447-1 1-1c1.654 0 3-1.346 3-3 0-.553.447-1 1-1s1 .447 1 1c0 2.757-2.243 5-5 5z"/></g><g><path d="m46 16.006h-28c-.553 0-1-.447-1-1s.447-1 1-1h28c.553 0 1 .447 1 1s-.447 1-1 1z"/></g><g><path d="m18 13.002c-2.757 0-5-2.243-5-5 0-.553.447-1 1-1s1 .447 1 1c0 1.654 1.346 3 3 3 .553 0 1 .447 1 1s-.447 1-1 1z"/></g><g><path d="m46 13c-.553 0-1-.447-1-1s.447-1 1-1c1.654 0 3-1.345 3-2.998 0-.553.447-1 1-1s1 .447 1 1c0 2.756-2.243 4.998-5 4.998z"/></g><g><path d="m46 13.002h-28c-.553 0-1-.447-1-1s.447-1 1-1h28c.553 0 1 .447 1 1s-.447 1-1 1z"/></g><g><path d="m23.001 59.994c-.553 0-1-.447-1-1v-43.996c0-.553.447-1 1-1s1 .447 1 1v43.996c0 .553-.447 1-1 1z"/></g><g><path d="m32.002 59.994c-.553 0-1-.447-1-1v-43.996c0-.553.447-1 1-1s1 .447 1 1v43.996c0 .553-.447 1-1 1z"/></g><g><path d="m41.003 59.994c-.553 0-1-.447-1-1v-43.996c0-.553.447-1 1-1s1 .447 1 1v43.996c0 .553-.447 1-1 1z"/></g><g><path d="m23.001 61c-.553 0-1-.447-1-1v-1.006c0-.553.447-1 1-1s1 .447 1 1v1.006c0 .553-.447 1-1 1z"/></g><g><path d="m32 61c-.553 0-1-.447-1-1v-1.006c0-.553.447-1 1-1s1 .447 1 1v1.006c0 .553-.447 1-1 1z"/></g><g><path d="m40.999 61c-.553 0-1-.447-1-1v-1.006c0-.553.447-1 1-1s1 .447 1 1v1.006c0 .553-.447 1-1 1z"/></g></g></svg>