<svg id="icons" enable-background="new 0 0 64 64" height="512" viewBox="0 0 64 64" width="512" xmlns="http://www.w3.org/2000/svg"><path d="m31.99 39.01v.01l-9.99 9.99v.01l-11.01-7.34-9.99-6.66v-.01l10-10 5.24 3.5z" fill="#ffce54"/><path d="m52.99 41.69v7.31l-21 14v-23.98l.01-.01 10 10v.01z" fill="#edab37"/><path d="m31.99 39.02v23.98l-21-14v-7.32l11.01 7.34v-.01z" fill="#f6bb42"/><path d="m32 11.01 20.99 14-5.271 3.51c.021-.34-.17-.68-.56-.939-.771-.521-2-.521-2.76 0 .76-.521.76-1.34 0-1.84-.771-.51-2-.51-2.761 0 .761-.51.761-1.34 0-1.84-.76-.5-2-.5-2.76 0 .76-.5.76-1.33 0-1.841-.76-.51-1.99-.51-2.75 0 .76-.51.76-1.329 0-1.84-.76-.51-1.979-.51-2.75-.01.75-.5.75-1.32-.01-1.82-.76-.51-1.99-.51-2.75 0-.76.511-.76 1.32-.01 1.83-.38-.26-.88-.38-1.37-.38-.5 0-1 .12-1.38.38-.761.511-.771 1.33 0 1.84-.38-.26-.88-.38-1.38-.38s-1 .12-1.381.38c-.76.511-.76 1.33 0 1.841-.38-.25-.88-.381-1.38-.381-.489 0-.989.131-1.37.381-.76.5-.76 1.33-.01 1.84-.38-.26-.88-.38-1.38-.38-.49 0-.99.12-1.37.38-.76.5-.76 1.319 0 1.84-.38-.26-.88-.38-1.38-.38s-1 .12-1.38.38c-.38.25-.57.58-.57.91l-.02.02-5.237-3.501 20.99-14z" fill="#f6bb42"/><path d="m33.38 20.21c.771-.5 1.99-.5 2.75.01.76.511.76 1.33 0 1.84.76-.51 1.99-.51 2.75 0 .76.511.76 1.341 0 1.841.76-.5 2-.5 2.76 0 .761.5.761 1.33 0 1.84.761-.51 1.99-.51 2.761 0 .76.5.76 1.319 0 1.84.76-.521 1.989-.521 2.76 0 .39.26.58.6.56.939l-15.721 10.49h-.01l-15.75-10.5.02-.02c0-.33.19-.66.57-.91.38-.26.88-.38 1.38-.38s1 .12 1.38.38c-.76-.521-.76-1.34 0-1.84.38-.26.88-.38 1.37-.38.5 0 1 .12 1.38.38-.75-.51-.75-1.34.01-1.84.381-.25.881-.381 1.37-.381.5 0 1 .131 1.38.381-.76-.511-.76-1.33 0-1.841.381-.26.881-.38 1.381-.38s1 .12 1.38.38c-.771-.51-.761-1.329 0-1.84.38-.26.88-.38 1.38-.38.49 0 .99.12 1.37.38-.75-.51-.75-1.319.01-1.83.76-.51 1.99-.51 2.75 0 .759.501.759 1.321.009 1.821z" fill="#e6e9ed"/><g fill="#ffce54"><path d="m53 25.01 10 10v.01l-10.01 6.67-10.99 7.33v-.01l-10-10 15.72-10.49 5.27-3.51z"/><path d="m63 15-10 10.01h-.01l-20.99-14 10-10.01 20.99 14z"/><path d="m21.99 1 10 10.01-20.99 14-10-10v-.01z"/></g><path d="m31.99 11.01-.01.007v6.992c.503-.002 1.006.123 1.39.381.76.5.76 1.32.01 1.82.771-.5 1.99-.5 2.75.01.76.511.76 1.33 0 1.84.76-.51 1.99-.51 2.75 0 .76.511.76 1.341 0 1.841.76-.5 2-.5 2.76 0 .761.5.761 1.33 0 1.84.761-.51 1.99-.51 2.761 0 .76.5.76 1.319 0 1.84.76-.521 1.989-.521 2.76 0 .39.26.58.6.56.939l5.271-3.51-20.992-14z" fill="#edab37"/><path d="m31.996 40.006c-.193 0-.387-.056-.555-.168l-21-13.999c-.278-.186-.445-.498-.445-.832s.167-.646.445-.832l21-13.999c.336-.225.773-.225 1.109 0l21 13.999c.278.186.445.498.445.832s-.167.646-.445.832l-21 13.999c-.167.112-.361.168-.554.168zm-19.197-14.999 19.197 12.797 19.197-12.797-19.197-12.797z"/><path d="m31.996 64.002c-.193 0-.387-.056-.555-.168l-21-13.999c-.46-.307-.584-.927-.277-1.387.306-.46.925-.584 1.387-.277l20.445 13.629 20.445-13.629c.461-.307 1.081-.183 1.387.277.307.46.183 1.08-.277 1.387l-21 13.999c-.168.112-.362.168-.555.168z"/><path d="m62.994 15.997c-.19 0-.383-.055-.554-.168l-21-13.999c-.46-.307-.584-.927-.277-1.387.306-.46.926-.584 1.387-.277l21 13.999c.46.307.584.927.277 1.387-.192.289-.51.445-.833.445z"/><path d="m52.996 26.007c-.256 0-.512-.098-.707-.293-.391-.391-.391-1.023 0-1.414l10.004-10.004c.391-.391 1.023-.391 1.414 0s.391 1.023 0 1.414l-10.004 10.004c-.195.195-.451.293-.707.293z"/><path d="m31.996 12.008c-.256 0-.512-.098-.707-.293-.391-.391-.391-1.023 0-1.414l10.004-10.005c.391-.391 1.023-.391 1.414 0s.391 1.023 0 1.414l-10.004 10.005c-.195.195-.451.293-.707.293z"/><path d="m1.003 15.997c-.323 0-.641-.156-.833-.445-.307-.46-.183-1.08.277-1.387l21-13.999c.461-.307 1.081-.183 1.387.277.307.46.183 1.08-.277 1.387l-21 13.999c-.171.113-.364.168-.554.168z"/><path d="m11.001 26.007c-.256 0-.512-.098-.707-.293l-10.004-10.004c-.391-.391-.391-1.023 0-1.414s1.023-.391 1.414 0l10.004 10.004c.391.391.391 1.023 0 1.414-.195.195-.451.293-.707.293z"/><path d="m32.001 12.008c-.256 0-.512-.098-.707-.293l-10.004-10.005c-.391-.391-.391-1.023 0-1.414s1.023-.391 1.414 0l10.004 10.005c.391.391.391 1.023 0 1.414-.195.195-.451.293-.707.293z"/><path d="m22.004 50.014c-.19 0-.383-.055-.554-.168l-21-13.999c-.46-.307-.584-.927-.277-1.387.306-.46.925-.583 1.387-.277l21 13.999c.46.307.584.927.277 1.387-.192.288-.51.445-.833.445z"/><path d="m1 36.009c-.256 0-.512-.098-.707-.293-.391-.391-.391-1.023 0-1.414l10.004-10.004c.391-.391 1.023-.391 1.414 0s.391 1.023 0 1.414l-10.004 10.004c-.195.195-.451.293-.707.293z"/><path d="m22 50.009c-.256 0-.512-.098-.707-.293-.391-.391-.391-1.023 0-1.414l10.004-10.005c.391-.391 1.023-.391 1.414 0s.391 1.023 0 1.414l-10.004 10.005c-.195.195-.451.293-.707.293z"/><path d="m41.999 50.014c-.323 0-.641-.156-.833-.445-.307-.46-.183-1.08.277-1.387l21-13.999c.461-.306 1.08-.183 1.387.277s.183 1.08-.277 1.387l-21 13.999c-.171.113-.364.168-.554.168z"/><path d="m63.003 36.009c-.256 0-.512-.098-.707-.293l-10.004-10.004c-.391-.391-.391-1.023 0-1.414s1.023-.391 1.414 0l10.004 10.004c.391.391.391 1.023 0 1.414-.195.195-.451.293-.707.293z"/><path d="m42.003 50.009c-.256 0-.512-.098-.707-.293l-10.004-10.005c-.391-.391-.391-1.023 0-1.414s1.023-.391 1.414 0l10.004 10.005c.391.391.391 1.023 0 1.414-.195.195-.451.293-.707.293z"/><path d="m31.996 64.002c-.553 0-1-.447-1-1v-23.996c0-.553.447-1 1-1s1 .447 1 1v23.996c0 .553-.447 1-1 1z"/><path d="m52.996 50.003c-.553 0-1-.447-1-1v-7.32c0-.553.447-1 1-1s1 .447 1 1v7.32c0 .553-.447 1-1 1z"/><path d="m10.996 50.003c-.553 0-1-.447-1-1v-7.32c0-.553.447-1 1-1s1 .447 1 1v7.32c0 .553-.447 1-1 1z"/><path d="m47.729 29.519c-.012 0-.023 0-.035-.001-.541-.019-.967-.463-.966-1-.016-.022-.053-.063-.126-.112-.422-.283-1.221-.285-1.641-.002-.46.307-1.079.188-1.389-.27-.116-.172-.171-.367-.171-.56 0-.321.154-.636.44-.829.061-.041.098-.077.116-.101-.019-.003-.052-.035-.106-.071-.43-.287-1.229-.286-1.651-.005-.459.309-1.081.185-1.388-.272-.115-.171-.17-.365-.17-.557 0-.322.155-.639.442-.831.063-.043.101-.08.119-.104-.019-.001-.054-.037-.115-.077-.421-.278-1.227-.28-1.653.003-.462.305-1.081.176-1.386-.286-.111-.17-.164-.36-.164-.549 0-.325.158-.645.45-.837.059-.038.093-.071.111-.094-.019-.001-.056-.038-.118-.08-.417-.275-1.223-.276-1.649.005-.463.304-1.081.176-1.386-.286-.111-.17-.164-.36-.164-.549 0-.325.158-.645.45-.837.055-.035.09-.067.109-.09-.021-.004-.057-.039-.116-.078-.418-.28-1.215-.284-1.637-.007-.459.303-1.077.176-1.382-.283s-.181-1.077.276-1.384c.049-.033.081-.063.1-.083-.02-.004-.055-.037-.109-.074-.426-.285-1.224-.284-1.646-.001-.058.039-.094.072-.113.096.02.003.056.038.113.077.457.31.577.931.269 1.388-.31.457-.93.578-1.388.271-.418-.283-1.215-.281-1.637.003-.059.039-.095.074-.115.098.02.005.053.035.105.07.46.304.587.924.283 1.385s-.924.589-1.385.284c-.001 0-.001 0-.002-.001-.426-.28-1.225-.279-1.646.001-.06.04-.096.076-.114.1.019.002.053.035.108.072.46.305.587.925.283 1.385s-.921.59-1.385.285c-.426-.281-1.228-.28-1.653-.001-.06.04-.094.076-.112.099.019 0 .055.038.119.081.457.309.578.929.271 1.386-.306.458-.925.583-1.385.275-.424-.282-1.225-.28-1.646 0-.059.039-.094.072-.112.095.02.002.056.038.117.08.456.309.577.929.27 1.386-.306.457-.925.579-1.385.274-.423-.282-1.223-.28-1.646.002-.09.061-.126.109-.133.123 0 .552-.444.979-.997.979-.552 0-.996-.468-.996-1.021 0-.68.37-1.315 1.016-1.745.516-.345 1.153-.528 1.8-.551.127-.505.462-.96.961-1.289.513-.343 1.15-.525 1.796-.547.126-.506.461-.963.959-1.295.516-.34 1.152-.521 1.797-.543.127-.504.46-.96.957-1.294.516-.343 1.154-.525 1.8-.548.128-.5.461-.954.956-1.286.518-.348 1.157-.532 1.804-.555.128-.499.46-.951.954-1.281 1.102-.738 2.767-.74 3.872.002.492.329.823.779.951 1.279.647.022 1.286.206 1.801.551.497.333.831.788.959 1.29.644.022 1.279.203 1.792.542.502.336.836.794.963 1.299.644.022 1.28.202 1.793.541.501.333.836.79.963 1.296.646.022 1.284.206 1.801.552.494.325.828.778.956 1.283.646.022 1.285.207 1.802.553.667.447 1.036 1.107 1.012 1.81-.019.54-.462.966-.998.966z"/><path d="m31.996 19.004c-.553 0-1-.447-1-1v-6.996c0-.553.447-1 1-1s1 .447 1 1v6.996c0 .553-.447 1-1 1z"/></svg>